Coordinates
version=1
nRows=11
nColumns=40
inDegrees=yes

Units are S.I. units (second, meters, Newtons, ...)
Angles are in degrees.

endheader
time	pelvis_tilt	pelvis_list	pelvis_rotation	pelvis_tx	pelvis_ty	pelvis_tz	hip_flexion_r	hip_adduction_r	hip_rotation_r	knee_angle_r	knee_angle_r_beta	ankle_angle_r	subtalar_angle_r	mtp_angle_r	hip_flexion_l	hip_adduction_l	hip_rotation_l	knee_angle_l	knee_angle_l_beta	ankle_angle_l	subtalar_angle_l	mtp_angle_l	lumbar_extension	lumbar_bending	lumbar_rotation	arm_flex_r	arm_add_r	arm_rot_r	elbow_flex_r	pro_sup_r	wrist_flex_r	wrist_dev_r	arm_flex_l	arm_add_l	arm_rot_l	elbow_flex_l	pro_sup_l	wrist_flex_l	wrist_dev_l
     15.54000000	     -4.85898116	     -4.91018312	     -0.76519241	      0.98483447	      0.91641827	      0.46085967	     24.88857548	      0.34190429	    -12.96699900	     23.36574164	     23.36574164	      5.34336652	     -5.98938384	     -2.15871849	      2.55304373	    -10.40346011	     -8.13264767	     33.11141243	     33.11141243	     15.10278800	    -11.43837851	    -11.17333600	    -10.53354994	      5.12748054	      1.68769396	    -14.27387601	    -12.48755361	     -1.14649426	     29.13848982	     46.09003925	      0.00000000	      0.00000000	     13.06683490	    -18.38725141	     -8.76015919	     99.61117213	     48.28630266	      0.00000000	      0.00000000
     15.55142857	     -4.85244023	     -5.19703255	     -0.50405791	      0.98512140	      0.91755045	      0.46353591	     24.03276233	      0.79883827	    -13.32532821	     22.92610131	     22.92610131	      5.85855553	     -5.78582896	     -2.29052334	      4.34368611	    -11.27707564	     -7.22453892	     36.98375656	     36.98375656	     13.04870268	    -12.87469593	    -11.84080349	    -10.54706308	      5.35712606	      1.81997077	    -13.24559003	    -12.48064363	     -1.08073908	     29.60156371	     46.07413766	      0.00000000	      0.00000000	     11.76841873	    -17.82257565	     -8.52095023	     98.36786617	     48.24456618	      0.00000000	      0.00000000
     15.56285714	     -4.87001772	     -5.39250377	     -0.24036357	      0.98528451	      0.91858017	      0.46615768	     23.24909172	      1.15083322	    -13.67639383	     22.54312530	     22.54312530	      6.27223123	     -5.55347089	     -2.44568202	      6.32754303	    -11.97585225	     -6.15684331	     40.95298044	     40.95298044	     10.39812902	    -14.66962273	    -12.51333797	    -10.49870714	      5.42789544	      1.81841058	    -12.08361562	    -12.52301084	     -1.01678796	     30.19778771	     46.05362329	      0.00000000	      0.00000000	     10.45507615	    -17.27904364	     -8.38767442	     96.51554290	     48.19806920	      0.00000000	      0.00000000
     15.57428571	     -4.86799425	     -5.54390619	      0.00651263	      0.98542951	      0.91950269	      0.46863958	     22.44072473	      1.46123620	    -14.00369823	     22.14994928	     22.14994928	      6.71110701	     -5.29015130	     -2.63048016	      8.41477493	    -12.55980190	     -5.02029511	     44.97410937	     44.97410937	      7.52709986	    -16.26393301	    -12.83410737	    -10.44920067	      5.52139028	      1.86743331	    -10.88586015	    -12.60629001	     -0.95936878	     30.84944690	     46.03147108	      0.00000000	      0.00000000	      9.23933083	    -16.72075016	     -8.24249708	     94.45477944	     48.14687047	      0.00000000	      0.00000000
     15.58571429	     -4.81538049	     -5.75370452	      0.25562017	      0.98543646	      0.92029696	      0.47108247	     21.62612824	      1.82973103	    -14.35075057	     21.82348989	     21.82348989	      7.15341497	     -5.06613168	     -2.81080530	     10.59768225	    -13.18779986	     -3.87345900	     49.04463544	     49.04463544	      4.70084412	    -17.37417799	    -12.51577358	    -10.51537630	      5.64560316	      1.96890154	     -9.56992428	    -12.74547173	     -0.94351329	     31.52428359	     46.01246240	      0.00000000	      0.00000000	      8.06724135	    -16.12726908	     -7.97607665	     92.48400170	     48.08834764	      0.00000000	      0.00000000
     15.59714286	     -4.81060732	     -5.80167469	      0.51797490	      0.98534072	      0.92097243	      0.47335891	     20.89762190	      2.00550542	    -14.64105123	     21.55181747	     21.55181747	      7.55102169	     -4.75571907	     -3.12865442	     12.94078589	    -13.48855835	     -2.60509704	     53.07586665	     53.07586665	      2.41967258	    -18.03201402	    -10.48162299	    -10.40500421	      5.62638950	      2.03091336	     -8.29015285	    -12.91265575	     -0.76710624	     32.56528062	     45.96545798	      0.00000000	      0.00000000	      7.40880629	    -15.45268590	     -7.91977121	     88.44506348	     48.01250634	      0.00000000	      0.00000000
     15.60857143	     -4.80289266	     -5.93286513	      0.78288606	      0.98504699	      0.92148816	      0.47547724	     20.19451184	      2.26352190	    -14.95936239	     21.29034429	     21.29034429	      7.88676699	     -4.53858962	     -3.42166613	     15.48745336	    -13.67257566	     -1.11392043	     57.20004258	     57.20004258	      1.35301589	    -18.08803658	     -5.39154282	    -10.38148982	      5.66848546	      2.73821247	     -7.46056962	    -13.22053561	     -0.52450112	     33.85892692	     45.89867057	      0.00000000	      0.00000000	      7.27050303	    -14.51932746	     -7.18586823	     84.59922487	     47.90849432	      0.00000000	      0.00000000
     15.62000000	     -4.70996757	     -6.16392749	      1.08530846	      0.98470215	      0.92189388	      0.47758765	     19.43752703	      2.64038856	    -15.23489618	     21.08242638	     21.08242638	      8.28866427	     -4.47940781	     -3.51938598	     17.79207375	    -14.05425856	      0.14403709	     60.65128374	     60.65128374	     -0.92305520	    -18.39144934	     -4.40590164	    -10.53911796	      5.77300946	      2.75298554	     -5.84444243	    -13.43805517	     -0.63912188	     34.64203724	     45.88601359	      0.00000000	      0.00000000	      5.96307279	    -14.09411881	     -6.69140779	     82.91135324	     47.83951552	      0.00000000	      0.00000000
     15.63142857	     -4.73818740	     -6.18432368	      1.39886701	      0.98414931	      0.92223764	      0.47929081	     18.82941800	      2.75033204	    -15.51166019	     20.89727419	     20.89727419	      8.70307230	     -4.29508292	     -3.65173485	     20.37228777	    -13.82975030	      1.64814921	     64.09179201	     64.09179201	     -0.97266320	    -18.10957838	      1.72269640	    -10.40443640	      5.72976294	      3.16128980	     -4.62322888	    -13.73288847	     -0.59166940	     35.80009346	     45.84157561	      0.00000000	      0.00000000	      6.19060773	    -13.26056743	     -6.19496377	     77.17158381	     47.71734979	      0.00000000	      0.00000000
     15.64285714	     -4.75343548	     -6.38072120	      1.78209219	      0.98347620	      0.92244681	      0.48100361	     18.19437077	      3.06620655	    -15.81692815	     20.64042354	     20.64042354	      9.06475444	     -4.27751646	     -3.68014388	     22.76736204	    -13.89590361	      2.95886607	     66.77915349	     66.77915349	     -2.36051120	    -18.18007990	      2.82099645	    -10.42437700	      5.80004893	      2.71445856	     -2.74718901	    -13.86180288	     -0.79734257	     36.87504303	     45.82332555	      0.00000000	      0.00000000	      4.89790014	    -13.19454172	     -5.67997582	     74.43178355	     47.62635707	      0.00000000	      0.00000000
     15.65428571	     -4.60519988	     -6.42806365	      2.10917189	      0.98283445	      0.92288386	      0.48233476	     17.42808700	      3.20420731	    -16.03323388	     20.50121870	     20.50121870	      9.55269506	     -4.18033649	     -3.71138108	     24.89390668	    -13.70967238	      4.03485059	     69.12885150	     69.12885150	     -2.38282281	    -17.96667831	      5.69273564	    -10.53400558	      5.79462556	      3.44461280	     -1.37166682	    -14.25735497	     -0.94065080	     37.74546192	     45.80307949	      0.00000000	      0.00000000	      5.34287000	    -12.13552907	     -5.08353637	     68.97606021	     47.50122537	      0.00000000	      0.00000000
